<svg width="100%" height="23" viewBox="0 0 25 24" fill="none" xmlns="http://www.w3.org/2000/svg">
<path d="M23.9889 21.591L18.5482 16.1503C19.858 14.4065 20.5652 12.284 20.5628 10.103C20.5628 4.53226 16.0305 0 10.4597 0C4.88895 0 0.356689 4.53226 0.356689 10.103C0.356689 15.6738 4.88895 20.2061 10.4597 20.2061C12.6407 20.2085 14.7632 19.5014 16.507 18.1915L21.9477 23.6322C22.2231 23.8783 22.5823 24.0098 22.9515 23.9994C23.3208 23.9891 23.6721 23.8378 23.9333 23.5766C24.1945 23.3154 24.3458 22.9641 24.3561 22.5948C24.3665 22.2256 24.235 21.8664 23.9889 21.591ZM3.24327 10.103C3.24327 8.67576 3.66651 7.28053 4.45946 6.09379C5.25242 4.90705 6.37948 3.9821 7.69811 3.4359C9.01675 2.88971 10.4677 2.7468 11.8676 3.02525C13.2674 3.30369 14.5533 3.99099 15.5625 5.00023C16.5718 6.00947 17.2591 7.29532 17.5375 8.69518C17.816 10.095 17.6731 11.546 17.1269 12.8647C16.5807 14.1833 15.6557 15.3103 14.469 16.1033C13.2822 16.8963 11.887 17.3195 10.4597 17.3195C8.54651 17.3172 6.71231 16.5562 5.35946 15.2033C4.00661 13.8505 3.24557 12.0163 3.24327 10.103Z" fill="#0055A6"/>
</svg>
